#N canvas 40 73 860 617 10;
#X obj 12 108 vsl 15 128 0 2.5 0 0 empty empty empty 0 -8 0 8 -225280
-1 -1 12700 1;
#X obj 7 573 dac~;
#X obj 8 548 *~;
#X obj 95 565 hsl 128 15 0 1 0 0 empty empty volume 50 -6 0 10 -225271
-33289 -1 7800 1;
#X text 5 446 our array of oscilators;
#X obj 186 374 s \$0-atsamp;
#X obj 96 374 s \$0-atsfreq;
#X obj 7 488 catch~ \$0-atsaudio;
#X msg 91 547 0;
#X obj 91 528 loadbang;
#X msg 428 535 \; pd dsp 1;
#X msg 428 572 \; pd dsp 0;
#X text 293 542 turn pd's audio on;
#X text 287 577 turn pd's audio off;
#X msg 419 240 nosines;
#X msg 419 221 sines;
#X msg 419 259 noise;
#X msg 419 278 nonoise;
#X text 481 240 turns off the sine output;
#X text 481 221 turns on the sine output (default);
#X text 483 279 turns off the noise output;
#X text 481 259 turns on the noise output (default)*;
#X msg 219 89 set 1 2 4 10..20;
#X text 32 54 time pointer;
#X text 31 69 for data access;
#X msg 219 109 add 3 5..11;
#X text 337 109 adds partials to be output;
#X text 339 90 sets the partials to be output;
#X msg 208 55 open cl.ats;
#N canvas 0 0 1071 572 oscilators 0;
#X obj 13 11 help-atsreadhelp 42 \$0;
#X obj 13 31 help-atsreadhelp 41 \$0;
#X obj 13 51 help-atsreadhelp 40 \$0;
#X obj 13 71 help-atsreadhelp 39 \$0;
#X obj 13 91 help-atsreadhelp 38 \$0;
#X obj 13 111 help-atsreadhelp 37 \$0;
#X obj 172 11 help-atsreadhelp 36 \$0;
#X obj 172 31 help-atsreadhelp 35 \$0;
#X obj 172 51 help-atsreadhelp 34 \$0;
#X obj 172 71 help-atsreadhelp 33 \$0;
#X obj 172 91 help-atsreadhelp 32 \$0;
#X obj 172 111 help-atsreadhelp 31 \$0;
#X obj 331 11 help-atsreadhelp 30 \$0;
#X obj 331 31 help-atsreadhelp 29 \$0;
#X obj 331 51 help-atsreadhelp 28 \$0;
#X obj 331 71 help-atsreadhelp 27 \$0;
#X obj 331 91 help-atsreadhelp 26 \$0;
#X obj 331 111 help-atsreadhelp 25 \$0;
#X obj 489 11 help-atsreadhelp 24 \$0;
#X obj 489 31 help-atsreadhelp 23 \$0;
#X obj 489 51 help-atsreadhelp 22 \$0;
#X obj 489 71 help-atsreadhelp 21 \$0;
#X obj 489 91 help-atsreadhelp 20 \$0;
#X obj 489 111 help-atsreadhelp 19 \$0;
#X obj 648 11 help-atsreadhelp 18 \$0;
#X obj 648 31 help-atsreadhelp 17 \$0;
#X obj 648 51 help-atsreadhelp 16 \$0;
#X obj 648 71 help-atsreadhelp 15 \$0;
#X obj 648 91 help-atsreadhelp 14 \$0;
#X obj 648 111 help-atsreadhelp 13 \$0;
#X obj 807 11 help-atsreadhelp 12 \$0;
#X obj 807 31 help-atsreadhelp 11 \$0;
#X obj 807 51 help-atsreadhelp 10 \$0;
#X obj 807 71 help-atsreadhelp 9 \$0;
#X obj 807 91 help-atsreadhelp 8 \$0;
#X obj 807 111 help-atsreadhelp 7 \$0;
#X obj 807 131 help-atsreadhelp 6 \$0;
#X obj 807 151 help-atsreadhelp 5 \$0;
#X obj 807 171 help-atsreadhelp 4 \$0;
#X obj 807 191 help-atsreadhelp 3 \$0;
#X obj 807 211 help-atsreadhelp 2 \$0;
#X obj 807 231 help-atsreadhelp 1 \$0;
#X text 176 155 you'd probably be better off just using an external
like clone for this \, but since we don't want to require additional
externals for this help file \, we do it this way;
#X restore 10 463 pd oscilators;
#X msg 220 128 remove 2 5 7;
#X text 337 128 removes partials from output;
#X msg 220 159 setnz 1 2 4 10..20;
#X text 355 159 sets the noise bands to be output;
#X msg 221 178 addnz 3 5..11;
#X msg 221 197 removenz 2 5 7;
#X text 355 177 adds bands to be output;
#X text 356 196 removes bands from output;
#X text 295 55 opens/stores the data file to read from;
#X text 562 103 partials and noise bands are always output in order
from lowest to highest;
#X text 365 342 creation arguments: name of a data file \, noise \,
sines \, nosines \, nonoise. these work just as the above except the
data file doesn't require an "open" beforehand (order is not important)
;
#X obj 149 334 atsread crt.ats noise sines;
#X text 480 296 * note \, only atsfile types 3 & 4 will output noise
;
#X text 165 401 output 1: frequency list (sines);
#X text 166 413 output 2: amp list (sines);
#X text 166 425 output 3: noise energy list (if there is any);
#X obj 54 158 line;
#X msg 54 131 0 0 \, 2.5 2500;
#X text 32 190 <- move slider to;
#X text 31 202 access data manually;
#X text 36 100 press msg box to play;
#X text 37 113 note at normal speed;
#X text 4 4 ATSREAD example (the help-atsreadhelp which syntheizes
the sines requires the Zexy external);
#X connect 0 0 41 0;
#X connect 2 0 1 0;
#X connect 2 0 1 1;
#X connect 3 0 2 1;
#X connect 7 0 2 0;
#X connect 8 0 3 0;
#X connect 9 0 8 0;
#X connect 14 0 41 0;
#X connect 15 0 41 0;
#X connect 16 0 41 0;
#X connect 17 0 41 0;
#X connect 22 0 41 0;
#X connect 25 0 41 0;
#X connect 28 0 41 0;
#X connect 30 0 41 0;
#X connect 32 0 41 0;
#X connect 34 0 41 0;
#X connect 35 0 41 0;
#X connect 41 0 6 0;
#X connect 41 1 5 0;
#X connect 46 0 0 0;
#X connect 47 0 46 0;
