#N canvas 603 133 514 568 10;
#X obj 40 100 osc~;
#X obj 58 132 *~;
#X obj 102 33 packel \$1;
#X obj 7 31 packel \$1;
#X obj 14 74 lop~ 10;
#X obj 99 79 lop~ 10;
#X obj 101 56 sig~;
#X obj 12 53 sig~;
#X obj 59 156 throw~ \$2-atsaudio;
#X obj 102 11 r \$2-atsamp;
#X obj 7 9 r \$2-atsfreq;
#X connect 0 0 1 0;
#X connect 1 0 8 0;
#X connect 2 0 6 0;
#X connect 3 0 7 0;
#X connect 4 0 0 0;
#X connect 5 0 1 1;
#X connect 6 0 5 0;
#X connect 7 0 4 0;
#X connect 9 0 2 0;
#X connect 10 0 3 0;
